<svg width="62" height="62" viewBox="0 0 62 62" fill="none" xmlns="http://www.w3.org/2000/svg">
<path d="M30.2797 16.3384C30.5193 16.3266 30.7595 16.3207 31 16.3207C31.2405 16.3207 31.4807 16.3266 31.7203 16.3384L32.4829 0.814234C31.9895 0.789995 31.495 0.777832 31 0.777832C30.505 0.777832 30.0105 0.789995 29.5171 0.814234L30.2797 16.3384Z" fill="url(#paint0_linear_3129_3164)"/>
<path d="M27.4332 16.7606C27.8993 16.6439 28.3708 16.5501 28.8461 16.4796L26.5655 1.10494C25.587 1.25009 24.6162 1.44319 23.6566 1.68355L27.4332 16.7606Z" fill="url(#paint1_linear_3129_3164)"/>
<path d="M33.1539 16.4796C33.6292 16.5501 34.1007 16.6439 34.5668 16.7606L38.3434 1.68355C37.3838 1.4432 36.4131 1.25009 35.4345 1.10494L33.1539 16.4796Z" fill="url(#paint2_linear_3129_3164)"/>
<path d="M25.3824 17.4381C25.6046 17.3461 25.8288 17.2596 26.0547 17.1788L20.8184 2.5445C20.3533 2.71093 19.8919 2.88892 19.4344 3.07836C18.9771 3.26781 18.5249 3.46827 18.0783 3.67948L24.7238 17.7301C24.9406 17.6275 25.1603 17.5301 25.3824 17.4381Z" fill="url(#paint3_linear_3129_3164)"/>
<path d="M35.9453 17.1788C36.1712 17.2596 36.3954 17.3461 36.6176 17.4381C36.8397 17.5301 37.0594 17.6275 37.2762 17.7301L43.9217 3.67949C43.4751 3.46827 43.0229 3.26781 42.5656 3.07836C42.1082 2.88892 41.6467 2.71093 41.1816 2.5445L35.9453 17.1788Z" fill="url(#paint4_linear_3129_3164)"/>
<path d="M22.2555 19.2095C22.6414 18.9233 23.0412 18.6562 23.4533 18.4091L15.4627 5.07759C14.6142 5.58615 13.7912 6.13606 12.9966 6.72533L22.2555 19.2095Z" fill="url(#paint5_linear_3129_3164)"/>
<path d="M38.5467 18.4091C38.9588 18.6562 39.3586 18.9233 39.7445 19.2095L49.0034 6.72534C48.2088 6.13607 47.3858 5.58616 46.5373 5.0776L38.5467 18.4091Z" fill="url(#paint6_linear_3129_3164)"/>
<path d="M20.6201 20.6202C20.7901 20.4502 20.9641 20.2845 21.1419 20.1234L10.704 8.60687C10.3379 8.93864 9.9797 9.27968 9.62966 9.62972C9.27962 9.97976 8.93858 10.338 8.60681 10.704L20.1233 21.142C20.2844 20.9642 20.4501 20.7902 20.6201 20.6202Z" fill="url(#paint7_linear_3129_3164)"/>
<path d="M40.8581 20.1234C41.0359 20.2845 41.2099 20.4502 41.3799 20.6202C41.5499 20.7902 41.7156 20.9642 41.8767 21.142L53.3932 10.704C53.0614 10.338 52.7204 9.97976 52.3703 9.62972C52.0203 9.27968 51.6621 8.93864 51.296 8.60687L40.8581 20.1234Z" fill="url(#paint8_linear_3129_3164)"/>
<path d="M18.4091 23.4534C18.6561 23.0413 18.9232 22.6415 19.2094 22.2556L6.72528 12.9967C6.13601 13.7913 5.58609 14.6142 5.07753 15.4627L18.4091 23.4534Z" fill="url(#paint9_linear_3129_3164)"/>
<path d="M42.7906 22.2556C43.0768 22.6415 43.3439 23.0413 43.5909 23.4534L56.9225 15.4627C56.4139 14.6142 55.864 13.7913 55.2747 12.9967L42.7906 22.2556Z" fill="url(#paint10_linear_3129_3164)"/>
<path d="M17.438 25.3825C17.5301 25.1603 17.6274 24.9407 17.73 24.7238L3.67943 18.0784C3.46821 18.525 3.26775 18.9771 3.0783 19.4345C2.88885 19.8918 2.71087 20.3534 2.54444 20.8185L17.1787 26.0548C17.2596 25.8288 17.346 25.6047 17.438 25.3825Z" fill="url(#paint11_linear_3129_3164)"/>
<path d="M44.27 24.7238C44.3726 24.9407 44.47 25.1603 44.562 25.3825C44.654 25.6047 44.7404 25.8288 44.8213 26.0548L59.4556 20.8185C59.2892 20.3534 59.1112 19.8919 58.9217 19.4346C58.7323 18.9771 58.5318 18.525 58.3206 18.0784L44.27 24.7238Z" fill="url(#paint12_linear_3129_3164)"/>
<path d="M16.4795 28.8462C16.55 28.3709 16.6438 27.8993 16.7606 27.4332L1.68349 23.6567C1.44313 24.6163 1.25003 25.587 1.10488 26.5655L16.4795 28.8462Z" fill="url(#paint13_linear_3129_3164)"/>
<path d="M45.2394 27.4332C45.3562 27.8993 45.45 28.3709 45.5205 28.8462L60.8951 26.5655C60.75 25.5871 60.5569 24.6163 60.3165 23.6567L45.2394 27.4332Z" fill="url(#paint14_linear_3129_3164)"/>
<path d="M16.3207 31.0001C16.3207 30.7596 16.3266 30.5194 16.3383 30.2798L0.814173 29.5172C0.789934 30.0106 0.777771 30.505 0.777771 31.0001C0.77777 34.9689 1.55949 38.8989 3.0783 42.5656C4.59711 46.2323 6.82327 49.564 9.62966 52.3704C12.436 55.1768 15.7677 57.4029 19.4344 58.9218C23.1012 60.4405 27.0312 61.2223 31 61.2223C34.9689 61.2223 38.8988 60.4405 42.5656 58.9218C46.2323 57.4029 49.564 55.1768 52.3703 52.3704C55.1767 49.564 57.4029 46.2323 58.9217 42.5656C60.4405 38.8989 61.2222 34.9689 61.2222 31.0001C61.2222 30.505 61.2101 30.0106 61.1858 29.5172L45.6617 30.2798C45.6734 30.5195 45.6793 30.7596 45.6793 31.0001C45.6793 32.9278 45.2997 34.8366 44.562 36.6176C43.8242 38.3986 42.743 40.0168 41.3799 41.3799C40.0168 42.7431 38.3985 43.8243 36.6176 44.5621C34.8365 45.2997 32.9277 45.6794 31 45.6794C29.0723 45.6794 27.1635 45.2997 25.3824 44.5621C23.6015 43.8243 21.9832 42.7431 20.6201 41.3799C19.257 40.0168 18.1758 38.3986 17.438 36.6176C16.7003 34.8366 16.3207 32.9278 16.3207 31.0001Z" fill="url(#paint15_linear_3129_3164)"/>
<defs>
<linearGradient id="paint0_linear_3129_3164" x1="-7.98668" y1="-6.17329" x2="57.7467" y2="61.2223" gradientUnits="userSpaceOnUse">
<stop offset="0.0363151" stop-color="#3B53F1"/>
<stop offset="0.524591" stop-color="#6D80FD"/>
<stop offset="1" stop-color="#C9D0FE"/>
</linearGradient>
<linearGradient id="paint1_linear_3129_3164" x1="-7.98668" y1="-6.17329" x2="57.7467" y2="61.2223" gradientUnits="userSpaceOnUse">
<stop offset="0.0363151" stop-color="#3B53F1"/>
<stop offset="0.524591" stop-color="#6D80FD"/>
<stop offset="1" stop-color="#C9D0FE"/>
</linearGradient>
<linearGradient id="paint2_linear_3129_3164" x1="-7.98668" y1="-6.17329" x2="57.7467" y2="61.2223" gradientUnits="userSpaceOnUse">
<stop offset="0.0363151" stop-color="#3B53F1"/>
<stop offset="0.524591" stop-color="#6D80FD"/>
<stop offset="1" stop-color="#C9D0FE"/>
</linearGradient>
<linearGradient id="paint3_linear_3129_3164" x1="-7.98668" y1="-6.17329" x2="57.7467" y2="61.2223" gradientUnits="userSpaceOnUse">
<stop offset="0.0363151" stop-color="#3B53F1"/>
<stop offset="0.524591" stop-color="#6D80FD"/>
<stop offset="1" stop-color="#C9D0FE"/>
</linearGradient>
<linearGradient id="paint4_linear_3129_3164" x1="-7.98668" y1="-6.17329" x2="57.7467" y2="61.2223" gradientUnits="userSpaceOnUse">
<stop offset="0.0363151" stop-color="#3B53F1"/>
<stop offset="0.524591" stop-color="#6D80FD"/>
<stop offset="1" stop-color="#C9D0FE"/>
</linearGradient>
<linearGradient id="paint5_linear_3129_3164" x1="-7.98668" y1="-6.17329" x2="57.7467" y2="61.2223" gradientUnits="userSpaceOnUse">
<stop offset="0.0363151" stop-color="#3B53F1"/>
<stop offset="0.524591" stop-color="#6D80FD"/>
<stop offset="1" stop-color="#C9D0FE"/>
</linearGradient>
<linearGradient id="paint6_linear_3129_3164" x1="-7.98668" y1="-6.17329" x2="57.7467" y2="61.2223" gradientUnits="userSpaceOnUse">
<stop offset="0.0363151" stop-color="#3B53F1"/>
<stop offset="0.524591" stop-color="#6D80FD"/>
<stop offset="1" stop-color="#C9D0FE"/>
</linearGradient>
<linearGradient id="paint7_linear_3129_3164" x1="-7.98668" y1="-6.17329" x2="57.7467" y2="61.2223" gradientUnits="userSpaceOnUse">
<stop offset="0.0363151" stop-color="#3B53F1"/>
<stop offset="0.524591" stop-color="#6D80FD"/>
<stop offset="1" stop-color="#C9D0FE"/>
</linearGradient>
<linearGradient id="paint8_linear_3129_3164" x1="-7.98668" y1="-6.17329" x2="57.7467" y2="61.2223" gradientUnits="userSpaceOnUse">
<stop offset="0.0363151" stop-color="#3B53F1"/>
<stop offset="0.524591" stop-color="#6D80FD"/>
<stop offset="1" stop-color="#C9D0FE"/>
</linearGradient>
<linearGradient id="paint9_linear_3129_3164" x1="-7.98668" y1="-6.17329" x2="57.7467" y2="61.2223" gradientUnits="userSpaceOnUse">
<stop offset="0.0363151" stop-color="#3B53F1"/>
<stop offset="0.524591" stop-color="#6D80FD"/>
<stop offset="1" stop-color="#C9D0FE"/>
</linearGradient>
<linearGradient id="paint10_linear_3129_3164" x1="-7.98668" y1="-6.17329" x2="57.7467" y2="61.2223" gradientUnits="userSpaceOnUse">
<stop offset="0.0363151" stop-color="#3B53F1"/>
<stop offset="0.524591" stop-color="#6D80FD"/>
<stop offset="1" stop-color="#C9D0FE"/>
</linearGradient>
<linearGradient id="paint11_linear_3129_3164" x1="-7.98668" y1="-6.17329" x2="57.7467" y2="61.2223" gradientUnits="userSpaceOnUse">
<stop offset="0.0363151" stop-color="#3B53F1"/>
<stop offset="0.524591" stop-color="#6D80FD"/>
<stop offset="1" stop-color="#C9D0FE"/>
</linearGradient>
<linearGradient id="paint12_linear_3129_3164" x1="-7.98668" y1="-6.17329" x2="57.7467" y2="61.2223" gradientUnits="userSpaceOnUse">
<stop offset="0.0363151" stop-color="#3B53F1"/>
<stop offset="0.524591" stop-color="#6D80FD"/>
<stop offset="1" stop-color="#C9D0FE"/>
</linearGradient>
<linearGradient id="paint13_linear_3129_3164" x1="-7.98668" y1="-6.17329" x2="57.7467" y2="61.2223" gradientUnits="userSpaceOnUse">
<stop offset="0.0363151" stop-color="#3B53F1"/>
<stop offset="0.524591" stop-color="#6D80FD"/>
<stop offset="1" stop-color="#C9D0FE"/>
</linearGradient>
<linearGradient id="paint14_linear_3129_3164" x1="-7.98668" y1="-6.17329" x2="57.7467" y2="61.2223" gradientUnits="userSpaceOnUse">
<stop offset="0.0363151" stop-color="#3B53F1"/>
<stop offset="0.524591" stop-color="#6D80FD"/>
<stop offset="1" stop-color="#C9D0FE"/>
</linearGradient>
<linearGradient id="paint15_linear_3129_3164" x1="-7.98668" y1="-6.17329" x2="57.7467" y2="61.2223" gradientUnits="userSpaceOnUse">
<stop offset="0.0363151" stop-color="#3B53F1"/>
<stop offset="0.524591" stop-color="#6D80FD"/>
<stop offset="1" stop-color="#C9D0FE"/>
</linearGradient>
</defs>
</svg>
